<svg xmlns="http://www.w3.org/2000/svg" xmlns:xlink="http://www.w3.org/1999/xlink" width="1472" zoomAndPan="magnify" viewBox="0 0 1104 623.999998" height="832" preserveAspectRatio="xMidYMid meet" version="1.2"><g id="d94406a57d"><path style=" stroke:none;fill-rule:nonzero;fill:#ff5d00;fill-opacity:1;" d="M 467.347656 191.027344 L 468.769531 191.058594 C 469.761719 191.082031 470.753906 191.105469 471.742188 191.132812 C 473.261719 191.171875 474.78125 191.195312 476.300781 191.222656 L 479.191406 191.296875 L 480.570312 191.3125 C 481.851562 191.355469 481.851562 191.355469 483.921875 191.632812 C 485.148438 193.472656 485.148438 193.472656 485.3125 195.132812 L 485.332031 197.164062 L 485.363281 199.464844 L 485.378906 201.949219 C 485.390625 202.796875 485.398438 203.648438 485.410156 204.496094 C 485.4375 206.726562 485.460938 208.960938 485.480469 211.195312 C 485.511719 214.769531 485.550781 218.347656 485.59375 221.925781 C 485.609375 223.179688 485.621094 224.429688 485.628906 225.683594 L 485.652344 227.972656 L 485.671875 230 C 485.714844 230.746094 485.714844 230.746094 485.761719 231.503906 L 486.375 232.117188 C 489.09375 232.183594 491.816406 232.085938 494.535156 232.003906 C 495.898438 231.964844 497.257812 231.941406 498.621094 231.914062 C 503.039062 231.804688 506.839844 231.5625 510.90625 229.664062 C 513.660156 229.320312 515.472656 229.964844 518.003906 231.023438 C 520.527344 231.839844 523.148438 232.023438 525.773438 232.289062 L 527.464844 232.730469 L 528.695312 235.183594 L 515.8125 235.183594 L 515.8125 238.867188 L 517.117188 239.363281 C 518.878906 240.09375 518.878906 240.09375 520.71875 241.089844 C 522.476562 241.984375 522.476562 241.984375 524.171875 242.238281 L 525.625 241.933594 C 527.15625 240.359375 528.042969 238.949219 528.910156 236.929688 L 530.535156 235.183594 C 533.046875 234.714844 535.5 234.839844 538.046875 234.957031 L 540.140625 235.003906 C 541.84375 235.050781 543.550781 235.109375 545.253906 235.183594 L 545.253906 233.957031 L 546.480469 233.957031 C 547.28125 230.949219 547.464844 227.84375 547.09375 224.757812 C 546.546875 223.476562 546.546875 223.476562 545.828125 222.304688 C 545 220.859375 544.644531 220.035156 544.613281 218.355469 C 544.734375 217.304688 544.875 216.261719 545.035156 215.21875 C 545.238281 213.816406 545.265625 212.554688 545.214844 211.144531 C 545.253906 208.652344 545.546875 206.824219 546.480469 204.515625 C 547.785156 203.058594 547.785156 203.058594 549.546875 202.058594 C 551.851562 201.492188 553.476562 201.28125 555.796875 201.675781 C 557.140625 202.074219 558.1875 202.519531 559.359375 203.285156 C 560.558594 204.96875 560.882812 205.613281 561.199219 207.582031 C 561.285156 209.855469 561.277344 212.105469 561.203125 214.382812 L 561.199219 216.167969 L 561.8125 216.78125 C 561.628906 219.113281 561.328125 220.835938 560.242188 222.917969 C 559.238281 224.738281 559.238281 224.738281 559.167969 226.867188 C 559.425781 229.804688 560.273438 232.402344 561.199219 235.183594 L 562.578125 235.136719 C 564.636719 235.074219 566.695312 235.035156 568.75 234.992188 L 570.921875 234.917969 L 573 234.886719 L 574.917969 234.835938 L 576.535156 235.183594 C 577.582031 236.632812 577.582031 236.632812 578.375 238.253906 C 579.777344 239.964844 579.777344 239.964844 581.441406 241.320312 C 582.894531 241.855469 582.894531 241.855469 584.507812 241.933594 C 586.582031 241.261719 588.335938 240.246094 590.027344 238.867188 C 590.769531 236.925781 590.769531 236.925781 590.640625 235.183594 L 589.414062 235.183594 L 589.414062 233.957031 L 587.574219 233.957031 L 587.574219 235.183594 L 577.761719 235.183594 L 577.761719 233.957031 C 580.507812 232.785156 582.824219 232.023438 585.808594 231.8125 C 588.433594 231.625 590.140625 230.886719 592.480469 229.664062 C 594.46875 229.460938 595.746094 229.492188 597.589844 230.265625 C 599.34375 230.9375 600.796875 231.136719 602.664062 231.28125 L 604.648438 231.4375 L 606.703125 231.582031 L 608.71875 231.742188 C 612.71875 232.042969 616.683594 232.191406 620.691406 232.117188 C 621.515625 224.003906 621.355469 215.878906 621.304688 207.734375 C 621.289062 204.953125 621.277344 202.167969 621.269531 199.386719 L 621.253906 197.453125 L 621.246094 195.675781 L 621.238281 194.113281 C 621.304688 192.859375 621.304688 192.859375 621.917969 191.632812 C 625.113281 190.566406 628.542969 190.902344 631.886719 190.90625 C 633.222656 190.902344 634.554688 190.890625 635.886719 190.878906 C 636.738281 190.878906 637.589844 190.878906 638.4375 190.878906 L 640.777344 190.871094 C 642.773438 191.019531 642.773438 191.019531 644.230469 191.488281 L 645.226562 192.246094 C 645.867188 194.140625 645.917969 195.917969 645.921875 197.90625 L 645.929688 199.875 L 645.929688 202.023438 L 645.933594 204.292969 C 645.941406 206.347656 645.941406 208.402344 645.941406 210.453125 L 645.945312 214.304688 C 645.953125 218.78125 645.953125 223.261719 645.953125 227.738281 C 645.953125 231.910156 645.957031 236.082031 645.96875 240.253906 C 645.976562 243.839844 645.980469 247.425781 645.980469 251.007812 C 645.980469 253.148438 645.980469 255.289062 645.988281 257.429688 C 645.996094 259.8125 645.992188 262.199219 645.988281 264.585938 C 645.992188 265.292969 645.996094 266.003906 646 266.730469 L 645.992188 268.703125 L 645.992188 270.414062 C 645.824219 272.167969 645.390625 273.480469 644.613281 275.058594 C 642.640625 275.976562 640.390625 275.753906 638.25 275.753906 L 635.960938 275.757812 L 633.574219 275.75 L 631.1875 275.757812 L 628.894531 275.753906 L 626.800781 275.75 C 625.261719 275.683594 623.996094 275.507812 622.53125 275.058594 C 621.042969 271.003906 621.148438 267.117188 621.1875 262.832031 L 621.191406 260.539062 C 621.199219 258.132812 621.214844 255.726562 621.230469 253.320312 C 621.234375 251.683594 621.242188 250.050781 621.246094 248.414062 C 621.261719 244.414062 621.28125 240.414062 621.304688 236.414062 C 617.667969 236.050781 614.070312 235.71875 610.414062 235.738281 L 608.296875 235.746094 L 606.164062 235.761719 L 603.953125 235.769531 C 602.171875 235.777344 600.390625 235.785156 598.613281 235.800781 L 597.816406 237.988281 C 595.773438 243.425781 593.179688 249.375 589.460938 253.878906 C 588.1875 254.816406 588.1875 254.816406 586.453125 255.214844 C 582.515625 255.34375 579.519531 254.429688 575.917969 252.976562 C 574.328125 252.984375 574.328125 252.984375 572.851562 253.589844 C 569.171875 258.492188 567.378906 266.707031 566.527344 272.738281 C 566.191406 276.167969 566.066406 279.574219 567.378906 282.824219 C 567.976562 283.800781 568.605469 284.757812 569.269531 285.691406 C 574.632812 293.453125 579.128906 303.753906 580.214844 313.089844 L 580.417969 314.660156 C 580.746094 317.625 580.832031 320.519531 580.773438 323.5 C 580.695312 327.90625 581.007812 331.664062 582.667969 335.789062 L 583.3125 337.4375 C 583.730469 338.480469 584.152344 339.519531 584.589844 340.558594 C 585.648438 343.28125 585.835938 345.722656 585.933594 348.652344 C 585.96875 349.503906 586.007812 350.359375 586.042969 351.210938 C 586.101562 352.539062 586.152344 353.871094 586.191406 355.199219 C 586.355469 360.726562 587.027344 365.09375 589.863281 369.992188 C 590.640625 371.367188 590.640625 371.367188 590.640625 372.59375 L 592.480469 373.207031 L 592.480469 376.277344 C 590.664062 376.292969 588.851562 376.304688 587.035156 376.3125 L 585.472656 376.328125 L 583.976562 376.335938 L 582.59375 376.34375 C 581.441406 376.277344 581.441406 376.277344 580.214844 375.664062 C 580.101562 372.664062 580.015625 369.859375 580.863281 366.960938 C 581.515625 364.6875 581.515625 364.6875 581.476562 362.550781 C 580.683594 359.84375 579.332031 358.085938 577.667969 355.839844 C 575.140625 352.171875 573.351562 348.207031 572.851562 343.761719 C 572.902344 342.371094 572.964844 340.976562 573.046875 339.585938 C 573.054688 336.554688 573.054688 336.554688 572.253906 333.671875 C 571.308594 332.242188 570.28125 330.960938 569.171875 329.65625 C 568.132812 328.34375 567.097656 327.027344 566.070312 325.707031 L 565.261719 324.675781 C 563.042969 321.804688 561.433594 318.851562 559.972656 315.546875 L 559.300781 314.324219 C 558.496094 312.53125 558.503906 310.8125 558.40625 308.871094 C 558.210938 307.539062 558.210938 307.539062 557.390625 306.46875 L 556.292969 305.730469 C 554.742188 305.640625 554.742188 305.640625 553.113281 305.921875 L 551.4375 306.144531 L 550.160156 306.34375 L 549.617188 308.523438 C 547.550781 316.566406 545.085938 322.730469 539.210938 328.804688 C 537.695312 330.488281 536.5 331.933594 535.441406 333.949219 C 535.214844 335.855469 535.328125 337.710938 535.441406 339.621094 C 535.535156 343.421875 535.609375 346.660156 533.941406 350.160156 C 533.144531 351.472656 532.308594 352.761719 531.4375 354.027344 C 528.21875 358.480469 528.21875 358.480469 526.59375 363.605469 C 526.773438 365.414062 527.09375 367.136719 527.464844 368.914062 C 527.535156 370.0625 527.578125 371.214844 527.582031 372.363281 L 527.609375 373.847656 L 527.464844 375.046875 L 526.238281 376.277344 C 522.941406 376.957031 519.714844 377.054688 516.425781 376.277344 C 516.195312 374.742188 516.195312 374.742188 516.425781 372.59375 C 517.257812 371.28125 518.179688 370.117188 519.183594 368.929688 C 520.527344 367.121094 521.21875 365.328125 521.582031 363.101562 C 521.957031 358.289062 522.109375 353.476562 522.15625 348.648438 C 522.308594 343.171875 523.738281 338.609375 526.394531 333.832031 C 527.402344 331.867188 527.707031 330.28125 527.597656 328.035156 C 527.5 326.941406 527.390625 325.847656 527.277344 324.757812 C 526.410156 315.449219 527.382812 306.910156 531.195312 298.347656 C 532.535156 295.496094 534.007812 292.71875 535.542969 289.96875 C 536.285156 288.628906 536.996094 287.273438 537.671875 285.898438 C 538.507812 284.261719 538.507812 284.261719 539.503906 283.300781 C 540.4375 282.453125 540.4375 282.453125 540.769531 281.15625 C 541.347656 275.726562 540.648438 271.3125 538.964844 266.125 L 538.410156 264.308594 C 537.363281 260.984375 536.167969 257.816406 534.667969 254.667969 C 534.214844 253.589844 534.214844 253.589844 534.214844 252.363281 L 531.953125 253.242188 C 528.257812 254.449219 524.609375 255.042969 520.71875 254.816406 C 518.121094 254 516.523438 252.492188 514.671875 250.550781 C 511.898438 247.246094 509.84375 243.5625 508.453125 239.480469 C 508.214844 238.054688 508.011719 236.621094 507.839844 235.183594 C 505.296875 235.273438 502.753906 235.363281 500.210938 235.453125 L 498.046875 235.527344 C 492.191406 235.734375 492.191406 235.734375 486.375 236.414062 C 485.578125 238 485.671875 239.171875 485.652344 240.949219 L 485.628906 243.046875 L 485.609375 245.320312 L 485.546875 250.058594 C 485.519531 252.554688 485.492188 255.050781 485.46875 257.546875 C 485.445312 259.953125 485.410156 262.355469 485.378906 264.761719 L 485.363281 267.027344 L 485.332031 269.136719 L 485.3125 270.992188 C 485.140625 272.664062 484.867188 273.671875 483.921875 275.058594 C 481.726562 275.789062 479.707031 275.796875 477.425781 275.816406 L 476.046875 275.832031 C 475.085938 275.839844 474.128906 275.847656 473.167969 275.851562 C 471.699219 275.863281 470.234375 275.890625 468.765625 275.917969 C 467.832031 275.921875 466.898438 275.929688 465.964844 275.933594 L 464.636719 275.964844 C 463.390625 275.960938 463.390625 275.960938 461.226562 275.671875 C 459.882812 274.636719 459.882812 274.636719 458.773438 273.21875 C 458.46875 271.664062 458.46875 271.664062 458.46875 269.882812 L 458.453125 267.828125 L 458.476562 265.582031 L 458.46875 263.210938 C 458.460938 261.070312 458.472656 258.925781 458.484375 256.785156 C 458.496094 254.542969 458.492188 252.300781 458.492188 250.058594 C 458.492188 246.292969 458.503906 242.53125 458.519531 238.765625 C 458.539062 234.414062 458.546875 230.058594 458.546875 225.703125 C 458.546875 221.515625 458.550781 217.332031 458.5625 213.144531 C 458.566406 211.363281 458.566406 209.578125 458.570312 207.796875 C 458.570312 205.308594 458.582031 202.824219 458.59375 200.335938 L 458.59375 198.082031 L 458.609375 196.039062 L 458.617188 194.257812 L 458.773438 192.859375 C 460 191.632812 460 191.632812 460.996094 191.246094 C 463.117188 190.914062 465.210938 190.976562 467.34375 191.027344 "/><path style=" stroke:none;fill-rule:nonzero;fill:#2a231f;fill-opacity:1;" d="M 552.613281 162.800781 C 554.46875 163.320312 555.554688 163.90625 556.945312 165.246094 L 558.132812 166.671875 C 559.890625 168.757812 561.710938 170.699219 563.652344 172.613281 C 564.566406 173.527344 565.480469 174.441406 566.394531 175.355469 L 567.914062 176.878906 C 572.566406 181.527344 572.566406 181.527344 574.015625 182.980469 C 574.78125 183.746094 575.546875 184.507812 576.316406 185.265625 C 577.464844 186.402344 578.503906 187.507812 579.484375 188.792969 C 580.652344 190.199219 581.78125 191.261719 583.164062 192.4375 C 585.34375 194.296875 587.199219 196.292969 589.050781 198.476562 C 589.871094 199.425781 590.75 200.328125 591.636719 201.214844 L 593.09375 202.671875 L 593.984375 203.546875 C 594.855469 204.476562 594.855469 204.476562 596.160156 206.355469 C 596.136719 208.078125 596.136719 208.078125 595.546875 210.035156 C 594.503906 211.390625 593.519531 212.546875 592.328125 213.753906 L 591.4375 214.6875 C 590.566406 215.597656 589.6875 216.5 588.800781 217.394531 L 587.355469 218.898438 C 585.25 220.925781 583.019531 222.761719 580.75 224.605469 C 580.3125 224.964844 579.871094 225.328125 579.421875 225.699219 L 578.136719 226.742188 L 576.980469 227.683594 C 575.917969 228.4375 575.917969 228.4375 574.078125 229.050781 C 573.148438 229.121094 572.214844 229.160156 571.28125 229.167969 L 569.820312 229.191406 L 568.558594 229.050781 L 567.332031 227.824219 C 567.476562 226.390625 567.476562 226.390625 567.859375 224.589844 C 568.636719 220.390625 568.761719 216.332031 568.75 212.066406 L 568.78125 209.914062 C 568.785156 206.210938 568.523438 202.941406 567.355469 199.417969 C 566.773438 198.285156 566.773438 198.285156 565.519531 197.667969 L 564.265625 197.152344 L 562.75 196.382812 L 561.160156 195.582031 L 559.570312 194.773438 C 555.613281 192.878906 551.378906 193.152344 547.09375 193.472656 C 544.347656 194.234375 542.578125 195.59375 540.421875 197.421875 C 539.054688 199.070312 538.5 200.015625 537.894531 202.058594 C 537.730469 204.054688 537.75 206.039062 537.777344 208.042969 L 537.777344 209.632812 C 537.800781 212.644531 538 215.582031 538.367188 218.570312 C 538.570312 220.429688 538.585938 222.273438 538.582031 224.144531 L 538.589844 226.214844 L 538.507812 227.824219 L 537.894531 228.4375 C 536.820312 228.511719 535.746094 228.550781 534.671875 228.554688 L 532.902344 228.578125 C 531 228.425781 529.773438 228.078125 528.078125 227.210938 C 526.609375 226.035156 526.609375 226.035156 525.128906 224.640625 C 523.304688 222.949219 521.480469 221.289062 519.570312 219.695312 C 517.296875 217.6875 515.136719 215.578125 513.015625 213.410156 L 511.992188 212.417969 C 511.058594 211.433594 511.058594 211.433594 509.679688 209.421875 C 509.429688 207.390625 509.429688 207.390625 510.292969 205.128906 C 511.976562 203 513.886719 201.160156 515.851562 199.300781 L 517.402344 197.78125 C 520.113281 195.144531 522.902344 192.59375 525.773438 190.128906 C 527.65625 188.472656 529.390625 186.675781 531.148438 184.882812 L 532.539062 183.507812 C 534.570312 181.457031 536.539062 179.359375 538.507812 177.253906 L 539.714844 175.964844 C 541.734375 173.808594 543.746094 171.644531 545.742188 169.472656 L 546.84375 168.277344 C 547.535156 167.527344 548.222656 166.777344 548.910156 166.023438 C 551.25 163.480469 551.25 163.480469 552.613281 162.800781 "/><path style=" stroke:none;fill-rule:nonzero;fill:#ff5d00;fill-opacity:1;" d="M 503.332031 398.765625 C 504.210938 398.753906 505.085938 398.746094 505.960938 398.742188 L 507.292969 398.699219 C 508.585938 398.691406 508.585938 398.691406 510.90625 398.972656 C 512.855469 400.429688 514.003906 402.28125 515.277344 404.339844 L 516.398438 406.136719 L 517.652344 408.175781 C 523.753906 418.171875 523.753906 418.171875 530.644531 427.632812 C 531.644531 428.882812 532.339844 430.027344 532.988281 431.484375 C 534.132812 431.40625 534.132812 431.40625 535.441406 430.871094 C 537.207031 428.996094 538.398438 426.929688 539.660156 424.699219 C 540.816406 422.695312 542.0625 420.75 543.296875 418.792969 C 545.164062 415.835938 546.976562 412.863281 548.703125 409.824219 C 550.773438 406.234375 553.058594 402.796875 555.679688 399.585938 C 557.609375 398.621094 559.660156 398.859375 561.773438 398.859375 L 563.128906 398.835938 C 564.328125 398.832031 565.523438 398.898438 566.71875 398.972656 L 568.558594 400.199219 C 568.742188 402.039062 568.804688 403.75 568.789062 405.59375 L 568.792969 407.285156 C 568.800781 409.140625 568.792969 410.992188 568.78125 412.847656 C 568.78125 414.132812 568.78125 415.417969 568.785156 416.703125 C 568.785156 419.398438 568.777344 422.097656 568.765625 424.792969 C 568.753906 428.253906 568.75 431.710938 568.757812 435.167969 C 568.757812 437.824219 568.753906 440.480469 568.75 443.136719 C 568.746094 444.410156 568.746094 445.6875 568.746094 446.960938 C 568.746094 448.746094 568.738281 450.527344 568.730469 452.308594 L 568.734375 453.910156 L 568.71875 455.386719 L 568.714844 456.664062 C 568.527344 458.121094 568.132812 459.082031 567.332031 460.316406 C 565.277344 461 563.632812 461.054688 561.46875 461.082031 L 559.320312 461.128906 L 557.519531 460.929688 C 556.292969 459.089844 556.292969 459.089844 556.148438 457.808594 L 556.164062 456.3125 L 556.171875 454.609375 L 556.195312 452.773438 L 556.203125 450.878906 C 556.214844 448.875 556.234375 446.871094 556.253906 444.867188 C 556.273438 442.871094 556.285156 440.878906 556.296875 438.882812 C 556.304688 437.644531 556.316406 436.402344 556.332031 435.164062 C 556.355469 431.832031 556.285156 428.628906 555.679688 425.351562 L 554.453125 424.738281 C 552.964844 426.136719 551.816406 427.621094 550.660156 429.300781 L 549.523438 430.941406 C 547.859375 433.390625 546.226562 435.867188 544.589844 438.339844 C 543.292969 440.25 541.90625 442.078125 540.492188 443.910156 C 539.609375 445.089844 539.609375 445.089844 538.738281 447.011719 C 537.894531 448.660156 537.894531 448.660156 536.78125 449.851562 C 535.441406 450.5 535.441406 450.5 533.640625 450.539062 C 531.761719 449.886719 531.761719 449.886719 530.265625 448.429688 C 528.589844 446.195312 527.160156 443.792969 525.683594 441.421875 C 523.925781 438.734375 522.019531 436.167969 520.105469 433.59375 C 518.195312 431.023438 516.398438 428.414062 514.722656 425.679688 L 513.972656 424.738281 L 512.132812 424.125 C 511.738281 428.246094 511.484375 432.328125 511.519531 436.46875 C 511.539062 441.199219 511.480469 445.925781 511.367188 450.65625 L 511.339844 452.867188 L 511.28125 454.957031 L 511.242188 456.832031 C 510.90625 458.476562 510.90625 458.476562 509.769531 459.90625 C 508.453125 460.929688 508.453125 460.929688 506.648438 461.210938 C 506.003906 461.195312 505.359375 461.175781 504.695312 461.160156 L 502.738281 461.136719 C 502.195312 461.066406 501.652344 461 501.09375 460.929688 C 499.867188 459.703125 499.867188 459.703125 499.488281 458.550781 C 499.257812 457.269531 499.171875 456.097656 499.167969 454.796875 L 499.15625 453.335938 L 499.15625 451.753906 L 499.144531 450.070312 C 499.136719 448.238281 499.132812 446.40625 499.128906 444.574219 L 499.117188 440.753906 C 499.113281 438.089844 499.109375 435.421875 499.105469 432.757812 C 499.101562 429.335938 499.085938 425.910156 499.070312 422.488281 C 499.058594 419.863281 499.054688 417.234375 499.054688 414.605469 C 499.054688 413.34375 499.046875 412.082031 499.039062 410.820312 C 499.03125 409.058594 499.03125 407.296875 499.035156 405.535156 L 499.019531 403.945312 C 499.027344 402.496094 499.027344 402.496094 499.253906 400.199219 C 501.09375 398.972656 501.09375 398.972656 503.332031 398.765625 "/><path style=" stroke:none;fill-rule:nonzero;fill:#2a231f;fill-opacity:1;" d="M 631.886719 190.90625 C 633.222656 190.902344 634.554688 190.890625 635.886719 190.878906 C 636.738281 190.878906 637.589844 190.878906 638.4375 190.878906 L 640.777344 190.871094 C 642.773438 191.019531 642.773438 191.019531 644.230469 191.488281 L 645.226562 192.246094 C 645.867188 194.140625 645.917969 195.917969 645.921875 197.90625 L 645.929688 199.875 L 645.929688 202.023438 L 645.933594 204.292969 C 645.941406 206.347656 645.941406 208.402344 645.941406 210.453125 L 645.945312 214.304688 C 645.953125 218.78125 645.953125 223.261719 645.953125 227.738281 C 645.953125 231.910156 645.957031 236.082031 645.96875 240.253906 C 645.976562 243.839844 645.980469 247.425781 645.980469 251.007812 C 645.980469 253.148438 645.980469 255.289062 645.988281 257.429688 C 645.996094 259.8125 645.992188 262.199219 645.988281 264.585938 C 645.992188 265.292969 645.996094 266.003906 646 266.730469 L 645.992188 268.703125 L 645.992188 270.414062 C 645.824219 272.167969 645.390625 273.480469 644.613281 275.058594 C 642.640625 275.976562 640.390625 275.753906 638.25 275.753906 L 635.960938 275.757812 L 633.574219 275.75 L 631.1875 275.757812 L 628.894531 275.753906 L 626.800781 275.75 C 625.261719 275.683594 623.996094 275.507812 622.53125 275.058594 C 621.042969 271.003906 621.148438 267.117188 621.1875 262.832031 L 621.191406 260.539062 C 621.199219 258.132812 621.214844 255.726562 621.230469 253.320312 C 621.234375 251.683594 621.242188 250.050781 621.246094 248.414062 C 621.261719 244.414062 621.28125 240.414062 621.304688 236.414062 L 620.078125 236.414062 L 619.464844 232.730469 L 620.691406 232.117188 C 622.136719 224.257812 621.351562 215.6875 621.304688 207.734375 C 621.289062 204.953125 621.277344 202.167969 621.269531 199.386719 L 621.253906 197.453125 L 621.246094 195.675781 L 621.234375 194.113281 C 621.304688 192.859375 621.304688 192.859375 621.917969 191.632812 C 625.113281 190.566406 628.542969 190.902344 631.886719 190.90625 "/><path style=" stroke:none;fill-rule:nonzero;fill:#d8e1e7;fill-opacity:1;" d="M 590.089844 398.21875 L 591.589844 398.21875 L 593.207031 398.246094 L 594.898438 398.261719 C 596.75 398.285156 598.601562 398.320312 600.453125 398.359375 L 602.476562 398.394531 C 604.523438 398.4375 606.570312 398.492188 608.617188 398.550781 L 610.554688 398.59375 C 614.96875 398.75 618.324219 399.417969 622.179688 401.691406 C 624.449219 403.425781 626.269531 404.878906 627.441406 407.5625 C 628.484375 411.820312 628.746094 416.667969 627.589844 420.917969 C 626.515625 423.449219 625.304688 425.417969 623.144531 427.191406 L 624.449219 428.148438 C 627.351562 430.609375 629.703125 433 631.042969 436.621094 C 632.007812 440.015625 632.09375 443.058594 631.445312 446.519531 C 630.472656 450.300781 628.894531 453.183594 626.214844 456.023438 C 623.511719 458.621094 620.613281 459.621094 617.035156 460.554688 C 614.039062 461.160156 611.121094 461.15625 608.074219 461.109375 L 606.121094 461.101562 C 604.09375 461.089844 602.0625 461.066406 600.03125 461.046875 C 598.644531 461.035156 597.257812 461.027344 595.867188 461.019531 C 592.492188 461 589.113281 460.96875 585.734375 460.929688 C 584.910156 454.5 585.042969 448.050781 585.058594 441.582031 L 585.0625 437.9375 C 585.066406 434.761719 585.070312 431.585938 585.078125 428.410156 C 585.082031 425.160156 585.085938 421.914062 585.089844 418.664062 C 585.097656 412.304688 585.105469 405.945312 585.121094 399.585938 C 586.898438 398.652344 588.074219 398.207031 590.089844 398.21875 M 597.386719 409.402344 L 596.773438 410.015625 C 596.722656 411.019531 596.703125 412.023438 596.714844 413.027344 L 596.71875 414.867188 L 596.734375 416.800781 L 596.742188 418.742188 C 596.75 420.332031 596.761719 421.921875 596.773438 423.511719 C 599.265625 423.5625 601.757812 423.597656 604.25 423.625 L 606.386719 423.671875 L 608.453125 423.691406 L 610.351562 423.71875 C 612.402344 423.476562 613.519531 422.890625 615.171875 421.667969 C 616.527344 419.613281 616.992188 418.226562 617.203125 415.765625 C 617.09375 413.785156 617.09375 413.785156 616.589844 412.316406 C 615.488281 410.84375 614.359375 410.230469 612.71875 409.402344 C 610.957031 409.140625 610.957031 409.140625 609.085938 409.199219 L 607.03125 409.210938 L 604.898438 409.246094 L 602.742188 409.257812 C 600.0625 409.277344 600.0625 409.277344 597.386719 409.402344 M 597.386719 433.9375 L 596.773438 434.550781 C 596.71875 435.6875 596.707031 436.828125 596.714844 437.964844 L 596.71875 440.058594 L 596.734375 442.257812 L 596.742188 444.464844 C 596.75 446.273438 596.761719 448.082031 596.773438 449.886719 C 601.300781 450.378906 605.710938 450.628906 610.265625 450.5 L 611.832031 450.46875 C 613.730469 450.359375 615.234375 450.203125 616.898438 449.25 C 618.234375 448.203125 619.308594 447.035156 620.308594 445.671875 C 620.890625 443.691406 620.90625 442.128906 620.691406 440.074219 C 619.652344 438.140625 618.636719 436.75 617.011719 435.28125 C 615.207031 434.207031 613.699219 433.957031 611.601562 433.859375 L 609.625 433.855469 L 607.480469 433.855469 L 605.246094 433.863281 L 602.988281 433.855469 L 600.847656 433.855469 L 598.882812 433.859375 Z M 597.386719 433.9375 "/><path style=" stroke:none;fill-rule:nonzero;fill:#ff5d00;fill-opacity:1;" d="M 402.960938 399.585938 C 407.707031 401.539062 412.109375 403.722656 415.621094 407.5625 C 416.484375 408.832031 416.832031 409.730469 417.066406 411.242188 L 417.066406 413.082031 C 416.117188 413.71875 415.15625 414.34375 414.191406 414.960938 L 412.574219 416.015625 C 410.933594 416.761719 410.933594 416.761719 409.335938 416.675781 C 407.78125 416.121094 406.882812 415.5 405.644531 414.425781 C 402.722656 412.164062 399.820312 410.828125 396.214844 410.015625 C 391.742188 409.570312 387.457031 409.640625 383.234375 411.28125 C 381.65625 412.085938 380.367188 413.144531 379.039062 414.308594 L 377.8125 414.308594 L 377.355469 415.304688 C 376.585938 416.761719 376.585938 416.761719 375.398438 418.296875 C 373.484375 421.171875 372.792969 424.425781 372.292969 427.804688 C 372.066406 432.121094 372.683594 435.75 374.480469 439.691406 C 376.296875 442.996094 378.429688 445.261719 381.492188 447.433594 L 383.027344 448.546875 C 386.21875 450.0625 389.527344 450.761719 393.0625 450.65625 C 396.527344 450.246094 399.609375 449.183594 402.613281 447.433594 C 404.152344 446.285156 404.152344 446.285156 405.261719 445.132812 L 406.027344 444.367188 L 407.253906 444.367188 L 409.09375 438.234375 C 406.660156 437.625 404.628906 437.503906 402.128906 437.445312 L 400.824219 437.414062 C 398.984375 437.363281 397.148438 437.320312 395.308594 437.28125 C 393.96875 437.246094 392.625 437.214844 391.28125 437.179688 L 388.847656 437.121094 L 387.015625 437.003906 L 386.402344 436.390625 C 386.339844 435.179688 386.320312 433.964844 386.324219 432.75 L 386.320312 430.738281 C 386.402344 429.03125 386.402344 429.03125 387.015625 427.804688 C 389.273438 427.050781 391.441406 426.964844 393.800781 426.847656 L 395.316406 426.769531 C 399.859375 426.5625 404.394531 426.511719 408.941406 426.5 L 410.996094 426.492188 C 414.304688 426.5 417.496094 426.546875 420.746094 427.191406 L 421.359375 427.804688 C 421.824219 433.886719 421.785156 439.390625 419.238281 445.042969 C 416.375 450.429688 413.058594 454.558594 407.867188 457.863281 C 400.96875 461.28125 395.007812 462.089844 387.390625 461.703125 C 383.246094 461.289062 379.605469 459.847656 375.972656 457.863281 C 373.707031 456.199219 371.765625 454.386719 369.839844 452.339844 L 368.152344 450.769531 C 364.699219 447.027344 361.886719 443.242188 360.640625 438.234375 C 359.683594 431.988281 359.410156 425.253906 361.699219 419.285156 C 364.175781 413.351562 367.339844 408.085938 372.292969 403.878906 C 381.476562 397.535156 392.417969 395.898438 402.960938 399.585938 "/><path style=" stroke:none;fill-rule:nonzero;fill:#d8e1e7;fill-opacity:1;" d="M 749.644531 401.195312 C 753.316406 403.160156 756.511719 405.695312 759.304688 408.789062 L 759.304688 410.015625 L 760.53125 410.015625 C 764.058594 414.730469 765.710938 419.605469 766.664062 425.351562 L 766.972656 426.734375 C 767.90625 431.84375 766.398438 437.355469 764.984375 442.265625 C 763.011719 447.347656 759.199219 452.074219 755.167969 455.695312 C 750.886719 458.953125 746.261719 461.34375 740.90625 462.15625 C 735.085938 462.535156 729.136719 462.75 723.734375 460.316406 L 722.105469 459.589844 C 717 457.058594 712.613281 453.554688 709.105469 449.042969 C 708.128906 447.523438 707.328125 446.003906 706.558594 444.367188 L 705.660156 442.503906 C 703.054688 436.324219 702.703125 430.132812 703.492188 423.511719 C 704.3125 418.980469 705.90625 414.890625 708.707031 411.203125 C 709.414062 410.390625 710.128906 409.585938 710.851562 408.789062 L 712.269531 406.871094 C 715.695312 403.207031 719.371094 400.875 724.152344 399.355469 C 732.992188 396.933594 741.238281 397.296875 749.644531 401.195312 M 722.351562 413.195312 C 719.15625 416.464844 716.53125 420.363281 715.144531 424.738281 C 714.429688 429.335938 714.089844 433.820312 715.757812 438.234375 C 717.441406 442.066406 720.085938 444.480469 723.40625 446.964844 C 726.769531 449.304688 729.386719 450.574219 733.507812 451.039062 C 737.402344 451.230469 740.636719 450.960938 744.140625 449.179688 C 747.75 446.960938 750.820312 444.222656 753.171875 440.6875 C 754.996094 436.828125 755.835938 433.03125 755.742188 428.761719 C 755.167969 424.035156 753.273438 420.09375 750.71875 416.148438 C 748.476562 413.375 745.933594 411.753906 742.667969 410.359375 C 735.40625 408.03125 728.613281 408.980469 722.351562 413.195312 M 650.003906 398.191406 C 650.976562 398.179688 651.949219 398.171875 652.921875 398.175781 L 654.503906 398.167969 C 655.613281 398.164062 656.722656 398.164062 657.828125 398.164062 C 659.496094 398.167969 661.160156 398.152344 662.828125 398.136719 C 676.957031 398.082031 676.957031 398.082031 682.789062 401.296875 C 685.660156 403.167969 687.753906 405.074219 689.464844 408.058594 C 690.960938 411.148438 691.355469 413.816406 691.378906 417.222656 L 691.417969 418.507812 C 691.445312 422.164062 690.425781 424.5625 688.75 427.804688 C 686.859375 430.679688 684.5 432.195312 681.539062 433.898438 C 680.1875 434.550781 680.1875 434.550781 678.960938 434.550781 C 679.3125 435.308594 679.671875 436.0625 680.03125 436.8125 L 680.636719 438.085938 C 681.558594 439.714844 682.695312 441.066406 683.867188 442.527344 C 685.066406 444.300781 686.191406 446.125 687.328125 447.941406 C 688.414062 449.660156 689.5 451.253906 690.785156 452.839844 L 691.839844 454.183594 L 691.839844 455.410156 L 693.066406 455.410156 C 694.371094 457.171875 694.371094 457.171875 695.519531 459.089844 L 695.519531 460.316406 C 692.761719 461.695312 688.945312 461.285156 685.894531 461.210938 C 684.226562 461.097656 683.347656 460.980469 681.855469 460.1875 C 680.902344 459.058594 680.257812 457.945312 679.574219 456.636719 C 678.863281 455.632812 678.148438 454.636719 677.425781 453.644531 C 675.019531 450.152344 672.664062 446.625 670.367188 443.0625 L 669.070312 441.070312 L 667.875 439.214844 C 666.71875 437.652344 665.871094 436.800781 664.238281 435.777344 C 662.65625 435.429688 662.65625 435.429688 661.019531 435.355469 L 659.363281 435.234375 L 658.105469 435.164062 L 658.058594 437.464844 C 658 440.269531 657.941406 443.074219 657.878906 445.878906 C 657.851562 447.09375 657.824219 448.308594 657.800781 449.523438 C 657.765625 451.269531 657.726562 453.011719 657.6875 454.753906 L 657.65625 456.414062 C 657.621094 457.714844 657.566406 459.015625 657.492188 460.316406 L 656.878906 460.929688 C 655.125 460.972656 653.382812 460.984375 651.628906 460.96875 L 650.128906 460.960938 C 648.902344 460.953125 647.679688 460.941406 646.453125 460.929688 C 645.902344 459.273438 645.761719 458.316406 645.753906 456.617188 L 645.742188 455.097656 L 645.742188 453.4375 L 645.730469 451.683594 C 645.707031 445.652344 645.695312 439.625 645.691406 433.59375 C 645.6875 430.019531 645.675781 426.441406 645.65625 422.867188 C 645.644531 420.125 645.640625 417.378906 645.640625 414.636719 C 645.640625 413.316406 645.632812 412 645.625 410.679688 C 645.617188 408.839844 645.617188 407 645.621094 405.160156 L 645.605469 403.496094 C 645.613281 401.980469 645.613281 401.980469 645.839844 399.585938 C 647.679688 398.359375 647.679688 398.359375 650.003906 398.191406 M 658.105469 409.402344 L 657.492188 410.015625 C 657.429688 411.144531 657.414062 412.277344 657.410156 413.40625 L 657.410156 415.488281 L 657.417969 417.683594 L 657.410156 419.875 L 657.414062 423.882812 L 657.492188 425.351562 L 658.105469 425.964844 C 660.464844 426.152344 662.832031 426.136719 665.199219 426.15625 L 667.191406 426.210938 C 670.292969 426.234375 672.859375 426.175781 675.679688 424.808594 C 677.714844 423.648438 677.714844 423.648438 678.960938 422.167969 C 679.835938 419.707031 679.90625 417.503906 679.574219 414.921875 C 679.03125 413.113281 679.03125 413.113281 677.734375 411.855469 C 674.453125 410.183594 671.605469 409.324219 667.949219 409.320312 L 666.222656 409.316406 L 664.429688 409.324219 L 662.617188 409.316406 L 660.898438 409.320312 L 659.320312 409.320312 Z M 658.105469 409.402344 "/><path style=" stroke:none;fill-rule:nonzero;fill:#2a231f;fill-opacity:1;" d="M 514.585938 282.421875 C 516.453125 282.242188 516.453125 282.242188 518.265625 283.035156 C 519.691406 283.953125 520.898438 284.828125 522.175781 285.910156 L 523.191406 286.695312 C 524.144531 287.488281 524.144531 287.488281 525.625 289.167969 C 525.949219 291.019531 525.949219 291.019531 525.625 292.847656 C 524.886719 294.402344 524.886719 294.402344 523.902344 295.953125 C 519.757812 303.183594 518.847656 312.492188 518.765625 320.722656 C 518.785156 322.789062 518.949219 324.46875 519.378906 326.511719 C 519.863281 329.6875 518.324219 332.488281 517.210938 335.402344 C 514.851562 342.09375 515.050781 349.03125 515.199219 356.03125 C 513.332031 355.160156 512.058594 354.222656 510.625 352.726562 C 509.441406 351.488281 508.21875 350.292969 506.996094 349.09375 C 505.292969 347.390625 503.652344 345.671875 502.089844 343.839844 C 500.035156 341.441406 497.8125 339.234375 495.5625 337.019531 C 494.019531 335.488281 492.546875 333.941406 491.164062 332.261719 C 489.519531 330.273438 487.652344 328.644531 485.691406 326.972656 C 484.207031 325.691406 482.835938 324.3125 481.46875 322.90625 L 480.011719 321.640625 L 479.011719 320.453125 C 478.976562 319.265625 478.976562 319.265625 479.625 318 C 481.082031 316.425781 481.082031 316.425781 482.695312 314.933594 L 483.730469 313.820312 L 484.535156 313.089844 L 485.761719 313.089844 L 486.183594 312.066406 C 487.226562 310.214844 488.550781 308.914062 490.054688 307.417969 L 491.703125 305.757812 L 493.121094 304.503906 L 494.347656 304.503906 L 494.761719 303.480469 C 495.820312 301.617188 497.238281 300.242188 498.761719 298.761719 L 499.714844 297.816406 C 500.722656 296.824219 501.730469 295.832031 502.742188 294.84375 C 504.0625 293.542969 505.378906 292.242188 506.699219 290.941406 L 507.660156 289.996094 C 509.472656 288.207031 511.105469 286.359375 512.683594 284.367188 C 513.667969 283.21875 513.667969 283.21875 514.585938 282.421875 M 588.800781 282.421875 C 590.222656 282.4375 590.222656 282.4375 591.867188 283.035156 C 593.128906 284.105469 594.332031 285.242188 595.46875 286.445312 L 596.382812 287.375 C 598.011719 289.054688 599.558594 290.78125 601.074219 292.5625 C 604.867188 296.9375 609.113281 300.910156 613.242188 304.964844 C 614.363281 306.074219 615.488281 307.183594 616.609375 308.292969 L 617.664062 309.328125 C 618.492188 310.148438 619.289062 311.003906 620.078125 311.863281 L 620.078125 313.089844 L 621.078125 313.476562 C 622.410156 314.246094 623.429688 315.011719 624.566406 316.042969 L 625.554688 316.9375 L 626.214844 318 C 626.207031 319.425781 626.207031 319.425781 625.601562 321.066406 C 624.605469 322.339844 623.542969 323.550781 622.417969 324.710938 L 621.441406 325.738281 C 618.503906 328.824219 615.484375 331.835938 612.441406 334.816406 L 611.390625 335.851562 L 610.464844 336.757812 C 609.511719 337.734375 609.511719 337.734375 608.425781 339.46875 L 607.199219 339.46875 L 606.714844 340.546875 C 605.382812 343.015625 603.355469 344.914062 601.449219 346.945312 L 600.199219 348.316406 L 598.980469 349.617188 L 597.875 350.804688 C 596.773438 351.738281 596.773438 351.738281 595.410156 352.175781 L 594.320312 352.351562 L 594.257812 351.285156 C 593.753906 343.542969 593.207031 336.878906 588.800781 330.269531 C 588.691406 328.273438 588.695312 326.472656 589.105469 324.515625 C 590.429688 317.574219 588.957031 309.054688 586.738281 302.425781 C 585.539062 299.183594 584.207031 296.136719 582.09375 293.386719 L 580.828125 291.621094 C 580.886719 290.136719 580.886719 290.136719 581.441406 288.554688 C 582.640625 287.222656 582.640625 287.222656 584.125 285.984375 L 585.59375 284.734375 C 586.960938 283.648438 586.960938 283.648438 588.800781 282.421875 M 553.226562 324.132812 C 555.113281 325.917969 556.582031 327.789062 558.054688 329.921875 C 559.46875 331.921875 560.675781 333.558594 562.695312 334.945312 L 564.265625 336.402344 C 565.027344 338.992188 564.890625 341.585938 564.804688 344.261719 C 564.773438 349.425781 566.484375 353.992188 568.90625 358.484375 C 569.605469 359.714844 570.308594 360.941406 571.011719 362.167969 C 571.429688 362.980469 571.839844 363.796875 572.238281 364.621094 C 571.566406 365.429688 570.890625 366.234375 570.207031 367.035156 L 569.066406 368.394531 C 567.945312 369.527344 567.945312 369.527344 566.105469 370.140625 L 565.570312 371.214844 C 564.847656 372.664062 563.976562 373.59375 562.808594 374.703125 C 562.019531 375.472656 561.246094 376.257812 560.492188 377.0625 L 559.054688 378.574219 L 557.691406 380.023438 C 556.292969 381.183594 556.292969 381.183594 554.816406 381.804688 C 553.226562 381.796875 553.226562 381.796875 551.464844 380.871094 C 549.183594 379.171875 547.203125 377.152344 545.214844 375.125 L 544.101562 374.011719 C 542.414062 372.308594 540.789062 370.585938 539.269531 368.730469 C 537.914062 367.101562 536.523438 365.882812 534.828125 364.621094 C 535.621094 362.382812 536.554688 360.792969 538.085938 358.984375 C 538.847656 358.003906 539.601562 357.023438 540.347656 356.03125 L 541.308594 354.765625 C 542.34375 353.113281 542.925781 351.800781 543.414062 349.898438 C 543.484375 347.722656 543.386719 345.554688 543.296875 343.378906 C 543.214844 341.238281 543.152344 339.144531 543.414062 337.015625 C 544.4375 335.171875 545.351562 334.300781 547.03125 333.0625 C 549.101562 331.527344 550.140625 329.414062 551.386719 327.199219 L 552.5 325.359375 Z M 553.226562 324.132812 "/><path style=" stroke:none;fill-rule:nonzero;fill:#ff5d00;fill-opacity:1;" d="M 440.988281 398.972656 C 443.21875 400.675781 444.484375 402.703125 445.894531 405.105469 C 446.609375 406.21875 447.324219 407.332031 448.039062 408.441406 L 449.078125 410.128906 C 450.636719 412.554688 452.367188 414.835938 454.109375 417.125 C 455.023438 418.496094 455.445312 419.449219 455.707031 421.054688 C 457.152344 421.277344 457.152344 421.277344 458.773438 421.054688 C 459.9375 419.953125 459.9375 419.953125 460.84375 418.410156 L 461.949219 416.707031 L 463.066406 414.921875 L 464.167969 413.269531 C 466.480469 409.761719 468.421875 406.171875 470.207031 402.367188 C 471.015625 400.859375 471.542969 400.011719 472.878906 398.972656 C 474.382812 398.765625 474.382812 398.765625 476.144531 398.792969 L 478.054688 398.8125 L 480.050781 398.859375 L 482.0625 398.882812 C 483.703125 398.90625 485.34375 398.933594 486.988281 398.972656 L 486.988281 400.8125 C 485.957031 402.128906 484.882812 403.40625 483.765625 404.648438 C 481.679688 406.972656 479.945312 409.179688 478.445312 411.945312 C 477.140625 414.195312 475.535156 416.246094 473.992188 418.332031 C 471.453125 421.816406 468.949219 425.308594 466.59375 428.914062 L 465.28125 430.921875 C 463.453125 434.234375 463.574219 437.574219 463.53125 441.269531 L 463.46875 444.492188 C 463.4375 446.179688 463.410156 447.867188 463.386719 449.558594 C 463.363281 451.191406 463.332031 452.824219 463.300781 454.457031 L 463.285156 455.996094 C 463.257812 457.230469 463.167969 458.46875 463.066406 459.703125 L 461.839844 460.929688 C 460.019531 461.070312 460.019531 461.070312 457.855469 461.042969 L 455.6875 461.03125 C 453.867188 460.929688 453.867188 460.929688 452.640625 460.316406 C 452.046875 458.53125 451.960938 457.449219 451.988281 455.597656 L 452.003906 453.859375 L 452.027344 451.996094 C 452.027344 450.710938 452.027344 449.429688 452.023438 448.144531 C 452.015625 446.347656 452.027344 444.554688 452.058594 442.761719 C 452.195312 436.648438 452.195312 436.648438 450.292969 430.929688 C 448.984375 428.734375 447.476562 426.742188 445.894531 424.738281 L 444.722656 423.195312 C 444.039062 422.300781 443.339844 421.414062 442.632812 420.53125 C 441.503906 419.09375 440.457031 417.613281 439.414062 416.109375 C 437.074219 412.738281 434.703125 409.421875 432.035156 406.296875 L 431.183594 405.300781 C 430.621094 404.644531 430.058594 403.992188 429.488281 403.34375 C 428.789062 402.527344 428.136719 401.671875 427.492188 400.8125 L 427.492188 398.972656 C 432.070312 398.238281 436.445312 397.863281 440.988281 398.972656 "/><path style=" stroke:none;fill-rule:nonzero;fill:#2a231f;fill-opacity:1;" d="M 653.199219 206.96875 C 654.515625 206.949219 655.832031 206.9375 657.148438 206.929688 L 659.367188 206.90625 L 661.171875 206.96875 L 661.785156 207.582031 C 661.84375 209.222656 661.863281 210.851562 661.855469 212.492188 L 661.855469 214.050781 C 661.855469 215.761719 661.851562 217.472656 661.847656 219.179688 L 661.84375 222.726562 C 661.839844 225.84375 661.835938 228.960938 661.828125 232.078125 C 661.824219 235.257812 661.820312 238.433594 661.816406 241.613281 C 661.808594 247.855469 661.800781 254.09375 661.785156 260.335938 L 652.585938 260.335938 C 651.863281 258.167969 651.882812 256.210938 651.882812 253.953125 L 651.878906 252.554688 C 651.871094 251.03125 651.871094 249.503906 651.871094 247.980469 L 651.863281 244.796875 C 651.859375 242.570312 651.859375 240.34375 651.859375 238.117188 C 651.859375 235.269531 651.851562 232.417969 651.839844 229.570312 C 651.835938 227.378906 651.832031 225.183594 651.832031 222.992188 C 651.832031 221.941406 651.828125 220.890625 651.824219 219.84375 C 651.820312 218.371094 651.820312 216.898438 651.824219 215.429688 C 651.820312 214.996094 651.816406 214.566406 651.8125 214.121094 C 651.832031 211.511719 652.246094 209.398438 653.199219 206.96875 "/><path style=" stroke:none;fill-rule:nonzero;fill:#ff5d00;fill-opacity:1;" d="M 444.054688 206.96875 C 445.605469 206.804688 445.605469 206.804688 447.425781 206.8125 L 449.246094 206.804688 L 450.800781 206.96875 L 452.027344 208.195312 C 452.148438 209.808594 452.195312 211.363281 452.1875 212.980469 L 452.191406 214.476562 C 452.199219 216.113281 452.195312 217.75 452.191406 219.386719 L 452.191406 222.792969 C 452.195312 225.175781 452.191406 227.558594 452.1875 229.9375 C 452.179688 232.996094 452.183594 236.050781 452.191406 239.105469 C 452.195312 241.453125 452.195312 243.796875 452.191406 246.144531 C 452.191406 247.269531 452.191406 248.398438 452.195312 249.523438 C 452.199219 251.097656 452.191406 252.671875 452.1875 254.246094 L 452.191406 255.664062 C 452.183594 256.8125 452.109375 257.960938 452.027344 259.109375 L 450.800781 260.949219 C 449.246094 261.195312 449.246094 261.195312 447.425781 261.179688 L 445.605469 261.195312 L 444.054688 260.949219 C 442.828125 259.109375 442.828125 259.109375 442.671875 256.964844 C 442.664062 256.058594 442.664062 255.152344 442.667969 254.246094 L 442.660156 252.746094 C 442.65625 251.109375 442.660156 249.472656 442.664062 247.835938 L 442.660156 244.425781 C 442.660156 242.046875 442.660156 239.664062 442.667969 237.285156 C 442.675781 234.226562 442.671875 231.171875 442.664062 228.113281 C 442.660156 225.769531 442.660156 223.425781 442.664062 221.078125 C 442.664062 219.953125 442.664062 218.824219 442.660156 217.695312 C 442.65625 216.125 442.660156 214.550781 442.667969 212.980469 L 442.660156 211.558594 C 442.671875 210.433594 442.742188 209.3125 442.828125 208.195312 Z M 444.054688 206.96875 "/><path style=" stroke:none;fill-rule:nonzero;fill:#2a231f;fill-opacity:1;" d="M 668.53125 206.96875 L 672.828125 207.582031 L 673.441406 228.4375 L 679.300781 228.417969 C 681.167969 228.410156 683.035156 228.40625 684.902344 228.402344 C 686.203125 228.402344 687.503906 228.398438 688.804688 228.390625 C 690.667969 228.382812 692.535156 228.378906 694.402344 228.378906 L 696.171875 228.367188 L 697.808594 228.367188 L 699.253906 228.363281 C 700.425781 228.4375 700.425781 228.4375 701.652344 229.050781 L 701.652344 230.277344 C 692.449219 230.898438 683.277344 230.960938 674.054688 230.890625 L 674.054688 233.34375 L 678.960938 233.957031 L 678.960938 235.183594 L 701.652344 235.183594 L 701.039062 237.640625 L 674.054688 238.253906 C 673.546875 240.792969 673.375 242.757812 673.402344 245.3125 L 673.414062 247.605469 L 673.441406 249.984375 C 673.453125 251.546875 673.46875 253.105469 673.476562 254.667969 L 673.5 256.757812 C 673.441406 258.496094 673.441406 258.496094 672.828125 260.335938 L 667.917969 260.335938 C 667.90625 253.46875 667.894531 246.601562 667.886719 239.734375 C 667.886719 236.542969 667.878906 233.355469 667.875 230.167969 C 667.867188 227.09375 667.863281 224.019531 667.859375 220.945312 C 667.859375 219.769531 667.859375 218.59375 667.855469 217.417969 C 667.851562 215.773438 667.847656 214.132812 667.851562 212.492188 L 667.84375 211.003906 C 667.84375 209.863281 667.878906 208.722656 667.917969 207.582031 Z M 668.53125 206.96875 "/><path style=" stroke:none;fill-rule:nonzero;fill:#ff5d00;fill-opacity:1;" d="M 433.628906 206.96875 C 434.449219 207.152344 435.265625 207.359375 436.082031 207.582031 L 436.695312 208.195312 C 436.753906 209.753906 436.777344 211.292969 436.773438 212.851562 L 436.777344 214.332031 C 436.777344 215.953125 436.777344 217.570312 436.773438 219.191406 L 436.777344 222.5625 C 436.777344 224.917969 436.777344 227.273438 436.773438 229.632812 C 436.769531 232.65625 436.773438 235.675781 436.777344 238.699219 C 436.777344 241.019531 436.777344 243.339844 436.777344 245.660156 C 436.777344 246.773438 436.777344 247.890625 436.777344 249.003906 C 436.777344 250.5625 436.777344 252.121094 436.773438 253.679688 L 436.777344 255.082031 C 436.769531 257 436.691406 258.5 436.082031 260.335938 L 433.628906 260.335938 C 432.90625 258.894531 432.953125 258.078125 432.976562 256.472656 L 432.988281 254.84375 L 433.039062 251.5 C 433.078125 246.8125 432.738281 242.367188 432.402344 237.640625 L 405.414062 237.640625 L 404.800781 235.183594 L 432.402344 235.183594 L 431.785156 230.890625 L 429.507812 230.902344 C 426.71875 230.910156 423.933594 230.917969 421.144531 230.925781 C 419.9375 230.929688 418.730469 230.933594 417.523438 230.9375 C 415.789062 230.945312 414.054688 230.949219 412.320312 230.953125 L 410.683594 230.960938 L 409.15625 230.960938 L 407.816406 230.964844 C 406.640625 230.890625 406.640625 230.890625 404.800781 230.277344 L 405.414062 228.4375 L 407.757812 228.449219 C 410.625 228.457031 413.488281 228.464844 416.351562 228.472656 C 417.59375 228.476562 418.835938 228.480469 420.074219 228.484375 C 421.855469 228.492188 423.636719 228.496094 425.417969 228.496094 L 427.105469 228.507812 L 428.667969 228.507812 L 430.046875 228.511719 C 431.234375 228.507812 431.234375 228.507812 432.402344 227.824219 L 432.445312 226.109375 C 432.503906 224.003906 432.566406 221.902344 432.628906 219.800781 C 432.65625 218.890625 432.679688 217.980469 432.707031 217.070312 C 432.742188 215.761719 432.78125 214.457031 432.820312 213.148438 L 432.886719 210.761719 C 433.015625 208.808594 433.015625 208.808594 433.628906 206.96875 "/><path style=" stroke:none;fill-rule:nonzero;fill:#2a231f;fill-opacity:1;" d="M 674.054688 233.957031 L 678.960938 233.957031 L 678.960938 235.183594 L 701.652344 235.183594 L 701.039062 237.640625 L 675.28125 238.253906 Z M 674.054688 233.957031 "/><path style=" stroke:none;fill-rule:nonzero;fill:#2a231f;fill-opacity:1;" d="M 674.054688 228.4375 C 677.785156 228.421875 681.519531 228.410156 685.253906 228.402344 C 686.523438 228.402344 687.796875 228.398438 689.066406 228.390625 C 690.890625 228.382812 692.714844 228.378906 694.535156 228.378906 L 696.265625 228.367188 L 697.867188 228.367188 L 699.277344 228.363281 C 700.425781 228.4375 700.425781 228.4375 701.652344 229.050781 L 701.652344 230.277344 C 695.210938 230.699219 688.789062 230.957031 682.332031 230.96875 L 680.480469 230.976562 L 678.75 230.972656 L 677.210938 230.96875 C 675.894531 230.890625 675.894531 230.890625 674.054688 230.277344 Z M 674.054688 228.4375 "/><path style=" stroke:none;fill-rule:nonzero;fill:#ff5d00;fill-opacity:1;" d="M 547.09375 302.664062 L 548.933594 303.277344 L 548.128906 305.332031 C 547.386719 307.308594 546.75 309.292969 546.171875 311.324219 L 545.714844 312.945312 C 545.402344 314.054688 545.09375 315.167969 544.792969 316.277344 L 544.332031 317.882812 L 543.929688 319.335938 L 543.414062 320.453125 L 541.574219 321.066406 L 541.867188 320.113281 C 543.132812 315.96875 544.289062 311.796875 545.429688 307.613281 C 546.414062 304.023438 546.414062 304.023438 547.09375 302.664062 "/><path style=" stroke:none;fill-rule:nonzero;fill:#ff5d00;fill-opacity:1;" d="M 622.53125 232.117188 C 623.144531 236.257812 623.144531 236.257812 623.144531 237.640625 C 621.652344 237.257812 621.652344 237.257812 620.078125 236.414062 C 619.582031 234.496094 619.582031 234.496094 619.464844 232.730469 C 620.691406 232.117188 620.691406 232.117188 622.53125 232.117188 "/><path style=" stroke:none;fill-rule:nonzero;fill:#ff5d00;fill-opacity:1;" d="M 587.574219 232.117188 L 587.574219 232.730469 L 582.054688 233.957031 L 583.894531 235.183594 L 577.761719 235.183594 L 577.761719 233.957031 C 581.265625 232.457031 583.765625 231.914062 587.574219 232.117188 "/><path style=" stroke:none;fill-rule:nonzero;fill:#ff5d00;fill-opacity:1;" d="M 466.132812 424.738281 L 467.359375 425.351562 L 466.597656 426.472656 L 465.597656 427.957031 L 464.605469 429.421875 C 463.804688 430.675781 463.085938 431.976562 462.453125 433.324219 L 461.839844 433.324219 C 461.707031 431.976562 461.707031 431.976562 461.839844 430.257812 C 462.78125 428.75 462.78125 428.75 463.988281 427.304688 L 465.195312 425.835938 Z M 466.132812 424.738281 "/><path style=" stroke:none;fill-rule:nonzero;fill:#ff5d00;fill-opacity:1;" d="M 457.546875 423.511719 L 459.386719 423.511719 C 458.582031 425.925781 457.597656 427.328125 455.707031 429.03125 C 455.246094 427.996094 455.246094 427.996094 455.09375 426.578125 C 456.167969 424.890625 456.167969 424.890625 457.546875 423.511719 M 534.828125 309.410156 C 536.285156 309.566406 536.285156 309.566406 537.894531 310.023438 C 538.699219 311.289062 538.699219 311.289062 539.121094 312.476562 L 536.054688 312.476562 Z M 475.332031 410.628906 L 476.558594 410.628906 C 475.871094 412.449219 475.195312 413.898438 474.105469 415.535156 L 472.878906 415.535156 C 473.953125 412.007812 473.953125 412.007812 475.332031 410.628906 "/><path style=" stroke:none;fill-rule:nonzero;fill:#ff5d00;fill-opacity:1;" d="M 554.453125 218.621094 L 556.292969 219.234375 C 557.328125 220.730469 557.328125 220.730469 558.132812 222.304688 L 558.132812 223.53125 L 556.292969 222.917969 C 555.257812 221.421875 555.257812 221.421875 554.453125 219.851562 Z M 554.453125 218.621094 "/><path style=" stroke:none;fill-rule:nonzero;fill:#ff5d00;fill-opacity:1;" d="M 547.09375 302.664062 L 548.933594 303.277344 L 547.09375 307.570312 L 545.867188 307.570312 C 546.402344 304.042969 546.402344 304.042969 547.09375 302.664062 "/></g></svg>